<svg xmlns="http://www.w3.org/2000/svg"><symbol id="a" viewBox="0 0 588 224"><g fill="#795548"><path d="M471.4 34.7l-6-33c-.5 0-1 .3-1.5.6-1.3.7-4 1.5-5 3.7-.7 1.2-1 7-5 8.7-3.6 1.4-3.2 6.4-6.3 7.5-8.7 3.2-14-.5-30.8-.8-7 0-16.4-5.8-24.5-4-6.7 1.5-17.2 4.5-21 .8-11-10.6-23 1-35.4 3.8-4 .8-8.4-.4-11.8-1-18-2-37-5.2-55.2-5-2.8 0-5.6 0-9 .5-.3-.2-3.7-5-4-5-8-10.5-21.2-8-30.8-1.4-15.6 10.6-32 18.3-51 19-4 0-8.6-2.5-14.2-5.3-5.5-2.6-8-.7-15-3.3l-19.6 24.3 66 3.3 95-6 92.4-5L422 42z"/><path d="M496 173c7.4 1.8 14.7 3.7 22 5 6.5 1.2 13 0 19.3-1.3 8.4-2 17-2.3 25.6-2.3 5 0 8-2.2 8-4.7 0-2-1.6-3-3.2-3.8-5.3-2.3-10.5-4.7-15.2-8.2-2-1.4-3.3-2.7-4.6-4.3-1.3-1.6-2.2-3.2-3-5 11.6-6 22.3-2 33.5 0 2 .5 4 .8 6-.3 3.3-1.8 4.6-3.6 4.5-5.3-.3-5.3-12.8-10.5-17.4-16.5-1.3-1.6-2-3.7-3.4-5.6-8-9.6-18-17.4-20.7-29-.8-3.5.8-7.6.3-11-.2-1.2-.6-2.3-1.5-3.2-3.4-3.4-10.8-4-16.4-5-6-1.4-9-6.6-15.2-9.6-1.6-1-2.6-2-3.2-3.4-.6-1.4-.8-3-1-4.5 0-1.6 0-3.3-.2-5 0-1.7-.3-3.3-1-4.8-2.5-6.8-10-11.7-15.8-17C487.3 23 482 9 475 3.4c-2.8-2.3-6-3.2-9.5-1.7l.5 166 20.7-.2zM145 20.4l-1.5-.6c-8-4-16.5-8-25.2-7.8-8.2.3-18.7 6-24.5 9.8-9.2 6.7-15.6 18.6-15.6 26 0 2.5 0 2.5-.4 4.2C68 59.2 58 66.3 50.6 76c-2.8 3.6-3.4 8.2-2.5 12.6.7 5.3-1.2 10.2-3.7 14.7-3 4.8-6 9-10.8 11-5 2.5-5 8-6.4 13-3 8-8.2 15.8-15.7 20.5-3.7 2.4-10 3-10.3 8.8 0 .7.2 1.4.4 2 1.6 4 7.6 3.7 11.4 4.2 7 1 13.5-1.8 20-3.4.4 0 .8 0 1-.2l11-1.3z"/></g><path stroke="#000" stroke-width="2" d="M193.6 44s6.8-2 9.8-1l11 2c5 1.2 20.4 0 24.6-1.6 3.5-1.2 13.4-5.3 19.3-6.2 7.5-1 15.7-2.2 23-2.2 0 0 12.8-.5 17.4-1.2 0 0 11.7-1.6 18.8 1.4 0 0 9.6 3.6 19.5 3 0 0 10.8 0 15.4-.5 7.4-.6 14 .8 19.5 1 2.3-3 9.5-3 15.3.5l18-.7s4.3-.2 9.7 1.7c0 0 9.8 2.6 18.3 1 0 0 14.5-2.6 26-5.7 0 0 5.4-1.8 9.7-1.4 0 0 4 .2 4.7 1.5 0 0 .8 1-1 2.6-3.3 2.5-8.8 3.7-12.2 5.6-2.2 1.3-5.7 3-9.6 5 0 0-11.4 3.8-15.6 4.4 0 0-9 1.6-13.2.6 0 0-12.3-2.5-14.6-3.4 0 0-4.7-1.5-7.2-3 0 0-14.4-9.5-18.6-10.2 0 0-9.4-2.2-10.8 3.5-1.8 5.6-3.6 8.2-10.7 8.6-1 .2-1.7 0-2.3-.7 0 0-4.6-5.3-8-6 0 0-5.4-1-9.6 1.7 0 0-9 5.8-14 7 0 0-10.4 3-17.8 2.3 0 0-12.6-.7-18.2.8 0 0-8.3 3-16 6 0 0-8.4 3.3-15.2 4.7 0 0-11.6 2-15.8 2 0 0-4-.2-7.5-1-3-.7-5.4-2.3-6.2-2.7-2.4-1.4-5-2-8.2-.6-1.2.6-7.3 1.7-11.8 2.6 0 0-5 1-8.4 1 0 0-8.4 0-13.2-2.4 0 0-4.5-2.6-8.5-1.6 0 0-10.6 2.2-13.8 2.2 0 0-5.4 0-9.6-1.4 0 0-8.3-3-13.3-9.7 0 0-2.7-4.4-5.6-6-3-1.4-8.8-2-9.5-4-.5-1.2 0-3 2.8-3 0 0 13.3 2 21.4 4 0 0 11.3 2.3 20.2 1.8 7.5-.2 14.3-.2 21.2-1.7z"/><g fill="none" stroke="#000" stroke-width="2" stroke-linecap="round"><path d="M496 173c7.2 1.8 14.4 3.7 21.8 5 6.4 1.2 13 0 19.2-1.3 8.3-2 17-2.3 25.5-2.3 7.2 0 10.3-4.2 7-7.3M483.5 86.3C484.3 98 494 107 505 109.5c5.6 1.4 11 1 16.4 4.4 5.3 3 13 6 15.2 10.7 2.5 5 3 10.5 4.8 16.7 1 2.6 2 5 3.4 7.2M260.4 16.5l-6.5.7M2.3 160c2.4 2.5 7.3 2.4 10.5 2.8 7 1 13.5-1.8 20-3.4.5 0 1 0 1.3-.2"/><path d="M145.2 20.5l-1.7-.7c-8-4-16.5-8-25.2-7.8-8.2.3-18.7 6-24.5 9.8-9.2 6.7-15.6 18.6-15.6 26 0 2.5 0 2.5-.4 4.2C68 59.2 58 66.3 50.6 76c-2.8 3.6-3.4 8.2-2.5 12.6.7 5.3-1.2 10.3-3.7 14.7-3 5-6 9-10.8 11-5 2.5-5 8-6.4 13-3 8-8.2 15.8-15.7 20.5-3.7 2.4-10 3-10.3 8.8 0 1.5.6 2.6 1.3 3.5M249.3 6c-7.5-3.5-16.8-.8-24 4-15.5 10.6-32 18.3-50.8 19-4.2 0-8.7-2.5-14.3-5.3-5.5-2.6-8-.7-15-3.2M253 8c-1.2-.8-2.4-1.5-3.7-2M260 16.5s-2.3-3.3-3.8-5c-1-1.4-2-2.5-3.3-3.4M367.3 15.2c-9.8-5-20.3 4.3-31.3 6.8-4 .8-8.4-.4-12-1-17.7-2-36.6-5.2-55-5-2.7 0-5.5 0-9 .5M373 19.3l-1.6-1c-1.3-1.4-2.7-2.4-4-3M472.3 1.7c-2.5-1.2-5.4-1.2-8.6.6-1.2.7-3.8 1.5-4.8 3.7-1 1.2-1.2 7-5.3 8.7-3.5 1.4-3 6.4-6.2 7.5-8.7 3.2-14-.5-30.8-.8-7 0-16.2-5.8-24.3-4-5.8 1.3-14.6 3.8-19.3 2M474.8 3.3c-.8-.7-1.6-1.2-2.5-1.6M517.4 65l-3-1.8c-6.2-3.6-2.8-11.7-5.2-17.7-2.6-6.8-10-11.7-16-17C487 23 482 9 475 3.4M525.6 71c-2.4-1.3-5.6-4.2-8-6M542.8 75.7c-3.8-1.6-9-2-13.2-3-1.5-.3-2.8-1-4-1.6M546 77.8c-.8-1-2-1.5-3.2-2M547.3 153c-1-1.3-1.8-2.7-2.7-4.5 11.7-6 22.3-2 33.5 0 2.2.5 4 .8 6-.3 13.5-7-6.7-13.7-12.8-21.7-1.2-1.6-1.8-3.7-3.4-5.6-8-9.6-18-17.4-20.7-29-1-4.7 2.3-10.5-1-14.2M551.8 157.5c-1.6-1.3-3.2-3-4.3-4.2M559.6 162.3c-2.5-1.3-5.3-3-7.6-4.7M567.5 166l-8-3.7M569.4 167c-.5-.3-1-.7-2-1"/></g></symbol><symbol id="b" viewBox="0 0 588 224"><g fill="#795548"><path d="M34 159.2c4.7-.8 11.4-1 13.3.8 0 0 0 .7-.7 1.2-2.7 2-6.2 3-9 5-3.2 2.2-5.7 5.5-7.5 9-.3.6-.4 1-.4 1.5 0 1.3 1 2 2.5 2.2 4.8 1 10.8 1.7 14.8.5 5.3-2 10.5-4.7 16.2-6 5-1 10.2-1 15 .2 3.3.7 6 3.8 9.8 3.6 6 0 10-.5 16-.7l-1 4c-1 3.7-2.3 8-1.5 11.8.2 1.2.7 2.4 1.5 3.6 2.7 3.2 11 4 15.6 5 7.8 1 18.8.5 23.3-2.4 5-3.3 9-8 14.5-11 8-4.7 15.5-10.4 24-14 2.6-1.3 5.5-2.3 8.5-3 0 2.4-.2 4.8-1 7-.7 3-1.8 5.5-3 8-1.7 3.6-5 7.7-4.3 10.8.2 1 .8 2 2 2.7 12.4 7.4 27 1.7 40.2.2 15-2.4 32.4-8.2 46 2 6.2 4 10.5 9.8 15 15.6 2 2.5 6.2 2 10.2 3.4 2 .6 4 1.2 6 1.6 11 2.3 22.3 1.5 32-4 10-6.5 21-13.3 32.5-17.7 13.3-4.2 30.8 1.2 42.4-3.7 11-4.3 22-10.2 33.3-4.3 8 4 20.8-1 19.3-10-.3-1-.8-2.5-1.6-4-1.3-2.4-1.8-3.4-3.2-5 3.8-2.7 8-3.8 12.7-4.8 7-1.4 13.2.6 20.2 2.4l9.3 2.3-14.2-40L52 137z"/><path d="M472.5 38.3l24 134.5-16.3-4.2-13-1-11.6 4.7-421.3-13L126 44.8l2-2 5 3 9 4 8.5 10.6 19 4.4 13.8-3.6 10.3 5 24.3-2.3 11.6-2 11.6 5.5 28-5.2 24.2-9 24 .8 22.6-8.2 7.8-4.2 13.4 8 9.3-4.2 3-8.3 13.2.8 23 13.6 23.7 2.7 25.8-9 14.7-7.4.2-2.7z"/></g><g fill="none" stroke="#000" stroke-width="2" stroke-linecap="round"><path d="M372.5 38.6c2.4-3 9.5-3 15.3.6m86.5-3.8s.8 1-1 2.7c-3.3 2.5-8.8 3.7-12.2 5.6-2 1.2-5.6 3-9.5 4.8 0 0-11.4 4-15.5 4.5 0 0-9 1.6-13.2.6 0 0-12.3-2.5-14.6-3.4 0 0-4.7-1.5-7.2-3 0 0-14.5-9.6-18.6-10.3 0 0-9.4-2.2-10.8 3.4-1.8 5.7-3.6 8.3-10.7 8.7-1 0-1.8 0-2.4-.7 0 0-4.6-5.3-8-6 0 0-5.4-1-9.6 1.7 0 0-9 5.8-14 7 0 0-10.4 3-17.8 2.3 0 0-12.6-.7-18.2.8 0 0-8.3 3-16 6 0 0-8.4 3.3-15.2 4.7 0 0-11.6 2-15.8 2 0 0-4-.2-7.5-1-2.8-.8-5.3-2.3-6-2.8-2.5-1.4-5-2-8.3-.7-1.2.7-7.3 1.7-11.8 2.7 0 0-5 1-8.4 1 0 0-8.4 0-13.2-2.4 0 0-4.5-2.6-8.5-1.6 0 0-10.6 2.2-13.8 2.2 0 0-5.3 0-9.5-1.5 0 0-8.3-3-13.3-9.6 0 0-2.8-4.4-5.7-6-3-1.4-8.8-2-9.5-4M182.7 199c12.2 7.4 27 1.7 40 .2 13-2 28-6.8 40.7-1.2M64.4 132.3c-2.4.6-6 1.6-6 4.7 0 2.8-1 6-4 7.2-2.8 1-2.2 5-3.3 8.2-1 2.7-2 5.6-3.5 8M141.5 127.5c.5 7.5-1.2 14.8-5.3 21.4-5.7 9.4-15.6 14.8-24.7 20.7-3 1.6-5.4 3.7-7.3 6.4M125 72.5s-.7 1.2-5.2 4.4c-4.2 3-6.8 6.4-5.5 11.6 0 0 1.2 5-.2 8.5 0 0-2 5.8-4 7.8 0 0-3.6 3.4-5.5 4.3 0 0-3.7 2-5 4.2l-3 5.6"/><path d="M188.7 174.5c-.6 3.8-2.2 7.6-4 11.2-2 4.7-7.2 10.3-2 13.4M321.3 118s-1.3 7.4-3.5 14.6c-1.3 5-5 10.7-6.7 13-2.4 3-7 7.3-13 10.5M260 105.4c-5.2 2.7-8.4 5.2-10.8 10-.8 1.7-.8 4.4-2.7 9M189 170.5c6-1 17.3-1.4 24-6.4 4.5-3.2 8.4-7.2 11.5-10.6 1.3-1.5 3-2.4 4.7-3.3M366.5 109c-.6 8 2 15.8 7 22 4.7 6.3 11.4 11 18.5 14.5M30.3 177.8c.4.6 1.2 1 2.2 1 4.6 1 10.7 2 14.7.7 5.3-2 10.5-4.7 16-6 5-1 10.3-1 15.2.2 3.2.7 6 3.8 9.7 3.6 5.2 0 9-.4 13.6-.6M34.7 159.2c4.2-.8 9-1 12.8 1"/><path d="M101.6 176.7h2.4l-1 4c-1.2 4.8-3.2 10.8 0 15.3.7.8 1.8 1.4 3 2M180.3 173.5c2.8-1.2 5.6-2.2 8.6-3 0 1.4 0 2.7-.3 4M47.4 160.7c-2.6 2-6.6 3.4-9.3 5.5-3.2 2.2-5.8 5.5-7.6 9-.6 1.2-.5 2 0 2.6M263.4 198c1.8.8 3.5 1.8 5.2 3M285.6 218.2c2.2 1 5.2.8 8.3 2 1.8.6 4 1.2 6 1.6 10.7 2.3 22 1.5 31.8-4 10-6.5 21-13.3 32.4-17.7 13.3-4.2 30.8 1.2 42.4-3.7 11-4.3 22-10.2 33.2-4.3 14.8 6.6 22.4-5 17.5-14.2M268.6 201c6.2 4 10.5 10 15 15.8.6.6 1.3 1 2 1.4M457.3 177.8c-1.2-2.3-1.6-3.3-3-4.7 3.8-2.7 8-3.8 12.7-4.8 6.8-1.4 13.2.6 20 2.4l9.5 2.3M106 198c3.7 1.6 9.3 2.2 12.7 3 7.7 1 18.7.5 23.2-2.4 5-3.3 9-8 14.4-11 8-4.7 15.5-10.4 24-14M454.2 173c-5.8-5.3-13-4.6-18-9.7-1.4-1.5-2.5-3.2-3.4-5"/></g></symbol><symbol id="m" viewBox="0 0 100 100" fill-rule="evenodd" stroke="#000" stroke-width=".5" stroke-linejoin="round" stroke-linecap="round"><path fill="#afaeac" d="M66 59.2C69 73.7 73 80 74.3 82c.2 0 .3.6-.3 1-18 8-38.4 6.8-52 5.3-5.8-.6-10.2-1.6-12.2-2-1-.2-.4-1 0-1.3l10.8-1.7L27 40.8 73.3 30l9 9.3s4 3.5 14.8 2.4c0 0 3-.5 2.8 1.6 0 0 .2 9.2-24 15.6 0 0-4.2 1-9.6 0z"/><path fill="#8a8a8a" d="M22 88.3c-5.6-.6-7-.8-12.3-1.8-1-.3-.2-1.4 0-2 2-3 3-4.5 4.4-7.3 2-3.3 3-8.3 3.7-10.6.7-2.8 1.5-7.4 2-11C21 50.4 22 45 22.4 39.3c.7-.4 2-.3 2.7-.6L51.7 34l7.5 6.4c-7-2.8-15.2-2-23-1L28 41c-1 13.3-2 26.7-4.2 40L22 88.2z"/><path fill="#e9d92c" d="M29.8 12.4S37 7 47.5 6.4c2.5-.3 5 0 7.7.3 0 0 10.4 1.8 11.8 4.4l7 13s0 3.6.8 5.6l-19 5.7z"/><path fill="#ceb72b" d="M74.8 29.4c.4 1.2.8 2.3 1.5 3.2 0 0 1 1.3 3.4 2 0 0 3 .7 3.5 2.8 0 0 .3 1.4-1.4 2-1.7.6-3.6 0-5 0-1.5 0-3.3.2-4 .5-1.6 1-3.2 2.4-5 3 0 0-5 1-8.6-2.6 0 0-4.6-4.6-13.8-4.3 0 0-15 1-23.4 4.7v2s-5.2-6.5 1.4-22.7c0 0 1.6-4 6.6-7.6 0 0 14-1.8 19.4 5 0 0 6.8 6.5 7 17 0 0 6.4-5.4 18.5-5z"/><path fill="#37363b" d="M20 35.5s16.2-10 35-7.5c0 0 .8 2 1 6.3 0 0-22.4-3-35.5 6.3-.5-1.4-.8-5-.8-5z"/><path fill="#1c1c1c" d="M25 33v5s-3.4 1.7-4.3 2.5c0 0-.8-2.8-.8-5 0 0 2.2-1.4 5-2.5z"/><path fill="none" d="M66.2 59.2S53 57.6 45 49m-4-.2s5 1.5 6-1.7"/><path d="M93.2 51.7c-5-2.8-4.3-10-4.3-10s4.6.4 8 0c0 0 3.6-.6 2 3.2 0 0-1 3-6.2 6.5z"/><path fill="#989795" d="M61.4 19.7s0-7.8 7-9c0 0 1.7-.3 3.7 0 3 .6 5.6 2.5 6.6 5.4 0 0 1 3.4-1.6 6 0 0-3.6 3.6-8.7 3.7 0 0-7.4.2-7-5.8z"/><path fill="#f7f48d" d="M78.7 17.7A6.7 6.3 0 0 1 72 24a6.7 6.3 0 0 1-6.8-6.3 6.7 6.3 0 0 1 6.8-6.3 6.7 6.3 0 0 1 6.7 6.3z"/><path fill="#737574" d="M63.7 21.4a2 1.8 0 0 1-2 1.8 2 1.8 0 0 1-1.7-1.8 2 1.8 0 0 1 2-1.8 2 1.8 0 0 1 1.7 1.8zm8.8 2.6c5-8.6-.6-12.6-.6-12.6s5.4-.2 6.4 5.6c0 0 1 6-6 7z"/></symbol></svg>
